<svg width="94" height="99" viewBox="0 0 94 99" fill="none" xmlns="http://www.w3.org/2000/svg">
<path d="M8.07988 87.1644C7.19025 88.0971 7.19025 89.5737 8.07988 90.4285L15.4187 98.1224C15.8634 98.5886 16.3824 98.8217 16.9754 98.8217C17.5683 98.8217 18.1615 98.5886 18.5321 98.1224L24.3883 91.9828L30.2445 98.1224C31.1341 99.055 32.5426 99.055 33.3579 98.1224L39.2141 91.9828L45.0703 98.1224C45.515 98.5886 46.1082 98.8217 46.627 98.8217C47.1459 98.8217 47.739 98.5886 48.1837 98.1224C49.0734 97.1897 49.0734 95.7131 48.1837 94.8583L40.7708 87.0867C39.8812 86.154 38.4727 86.154 37.6574 87.0867L31.8012 93.2263L25.945 87.0867C25.0554 86.154 23.6469 86.154 22.8316 87.0867L16.9754 93.2263L11.1933 87.1644C10.378 86.3095 8.96951 86.3095 8.07988 87.1644Z" fill="white"/>
<path d="M43.0689 55.3784H13.3432C12.0829 55.3784 11.1194 56.3888 11.1194 57.7098C11.1194 59.0308 12.0831 60.0412 13.3432 60.0412H43.0689C44.3292 60.0412 45.2927 59.0308 45.2927 57.7098C45.2927 56.3888 44.3292 55.3784 43.0689 55.3784Z" fill="white"/>
<path d="M13.3432 75.5846H23.0542C24.3144 75.5846 25.2779 74.5742 25.2779 73.2533C25.2779 71.9323 24.3142 70.9219 23.0542 70.9219H13.3432C12.0829 70.9219 11.1194 71.9323 11.1194 73.2533C11.1194 74.5742 12.0829 75.5846 13.3432 75.5846Z" fill="white"/>
<path d="M2.22377 98.8994C3.484 98.8994 4.44775 97.889 4.44775 96.568V34.3953C4.44775 31.3643 6.74584 28.955 9.63689 28.955H53.3732C52.4094 30.5093 51.8906 32.3745 51.8906 34.3953V88.7964C51.8906 90.1176 52.8543 91.1278 54.1144 91.1278C55.3746 91.1278 56.3381 90.1174 56.3381 88.7964V34.3953C56.3381 31.3643 58.6362 28.955 61.5271 28.955C64.4179 28.955 66.7162 31.3643 66.7162 34.3953V39.7576V39.8353L66.7903 69.445C66.7903 73.0199 68.0506 76.2063 70.2002 78.6933H63.0838C61.8236 78.6933 60.86 79.7036 60.86 81.0246C60.86 82.3458 61.8238 83.356 63.0838 83.356H80.0593C87.3981 83.356 93.4025 77.061 93.4025 69.3671V3.30886C93.4025 2.68722 93.1802 2.14307 92.7354 1.67684C91.8458 0.74416 90.4374 0.74416 89.622 1.67684L83.7658 7.81641L77.9098 1.67684C77.0202 0.74416 75.6117 0.74416 74.7964 1.67684L68.9402 7.81641L63.084 1.67684C62.7134 1.2106 62.1202 0.977485 61.5273 0.977485C60.9343 0.977485 60.3412 1.2106 59.9706 1.67684L54.1885 7.7387L48.3323 1.59892C47.4426 0.666245 46.0342 0.666245 45.2189 1.59892C44.3292 2.5316 44.3292 4.00821 45.2189 4.86297L52.6318 12.6346C53.0765 13.1008 53.5955 13.3339 54.1885 13.3339C54.7814 13.3339 55.3746 13.1008 55.7452 12.6346L61.5273 6.495L67.3835 12.6346C68.2731 13.5672 69.6816 13.5672 70.4969 12.6346L76.3531 6.495L82.2093 12.6346C82.654 13.1008 83.2472 13.3339 83.766 13.3339C84.2849 13.3339 84.878 13.1008 85.3227 12.6346L88.955 8.82658V69.3673C88.955 74.4965 84.9519 78.6933 80.0595 78.6933C75.167 78.6933 71.2381 74.5742 71.2381 69.445L71.164 34.395C71.164 28.7994 66.8645 24.2919 61.5271 24.2919H41.5123V11.0805C41.5123 9.75926 40.5486 8.74887 39.2885 8.74887C38.0283 8.74887 37.0648 9.75926 37.0648 11.0805V24.2923H9.63689C4.29951 24.2921 0 28.7996 0 34.3953V96.568C0 97.889 0.963749 98.8994 2.22377 98.8994Z" fill="white"/>
<path d="M43.0688 75.5848C44.2971 75.5848 45.2928 74.5409 45.2928 73.2532C45.2928 71.9655 44.2971 70.9216 43.0688 70.9216C41.8406 70.9216 40.8448 71.9655 40.8448 73.2532C40.8448 74.5409 41.8406 75.5848 43.0688 75.5848Z" fill="white"/>
</svg>
