<svg width="101" height="88" viewBox="0 0 101 88" fill="none" xmlns="http://www.w3.org/2000/svg">
<path d="M84.272 8.74671C76.9592 0.935095 63.3782 1.80291 49.681 10.8547C48.6363 11.5985 48.288 13.0865 48.8684 14.3264C49.5648 15.4424 50.9578 15.8144 52.1185 15.1945C63.726 7.50682 75.4499 6.39088 81.0216 12.3427C88.7988 20.6503 83.4593 40.1173 69.5301 54.9967C55.6008 69.876 37.2608 75.4557 29.5997 67.2721C27.3943 64.9162 26.2336 61.6923 26.0013 57.7246C25.8852 56.3608 24.8406 55.3688 23.5636 55.3688C22.2868 55.4927 21.2422 56.6086 21.3582 57.9727C21.5902 63.1804 23.3315 67.6441 26.3496 70.7441L37.1448 82.2756C40.5111 85.8716 45.154 87.6075 50.4937 87.6075C60.5925 87.6075 73.0125 81.4078 83.6916 70.0002C99.9423 52.6411 104.934 30.818 95.1832 20.2785L84.272 8.74671ZM91.8168 23.8742C93.9062 26.1061 94.9509 29.0818 95.2992 32.4297L89.1471 25.8579C89.2631 24.246 89.2631 22.634 89.1471 21.0221L91.8168 23.8742ZM88.9151 55.1206L81.4862 47.1851C82.5309 45.4492 83.5756 43.5891 84.3882 41.8532L91.701 49.6648C90.8882 51.5249 89.9597 53.3847 88.9151 55.1206ZM81.9503 64.7923L74.4052 56.7326C75.9142 54.9967 77.4233 53.1366 78.7 51.2768L86.2451 59.3365C84.9684 61.1963 83.4593 63.0564 81.9503 64.7923ZM73.7088 72.7279L66.1637 64.6681C67.7888 63.3043 69.5298 61.8163 71.1551 60.2043L78.7002 68.2641C77.0752 69.876 75.3339 71.364 73.7088 72.7279ZM64.655 78.6796L57.3421 70.868C58.9672 69.876 60.7085 68.884 62.3335 67.7681L69.7624 75.7036C68.0211 76.8196 66.396 77.8116 64.655 78.6796ZM54.9045 82.1514L48.056 74.8358C49.681 74.3398 51.3061 73.7199 52.9311 73.0999L60.1279 80.7876C58.2706 81.4075 56.5295 81.9035 54.9045 82.1514ZM86.4774 37.0176C87.1737 35.2818 87.6381 33.5459 88.1024 31.81L94.9509 39.1256C94.6026 40.8615 94.2545 42.7216 93.5579 44.5814L86.4774 37.0176ZM39.5822 76.0757C40.5109 76.0757 41.4395 75.9518 42.4842 75.9518L48.7524 82.6474C45.386 82.3995 42.6002 81.1594 40.5109 78.9275L37.8411 76.0757C38.4215 76.0757 39.0019 76.0757 39.5822 76.0757Z" fill="white"/>
<path d="M15.9026 48.9209C15.9026 50.2847 16.9473 51.4007 18.224 51.4007H29.4835C30.7603 51.4007 31.805 50.2847 31.805 48.9209V34.2897H45.5019C46.7787 34.2897 47.8233 33.1737 47.8233 31.8099V19.7822C47.8233 18.4183 46.7787 17.3024 45.5019 17.3024H31.805V2.67092C31.805 1.30711 30.7603 0.191162 29.4835 0.191162H18.224C16.9473 0.191162 15.9026 1.30711 15.9026 2.67092V17.3021H2.32142C1.04469 17.3024 0 18.4183 0 19.7822V31.8097C0 33.1735 1.04469 34.2894 2.32142 34.2894H16.0184V48.9206H15.9026V48.9209ZM4.64308 29.3299V22.2622H18.34C19.6168 22.2622 20.6615 21.1462 20.6615 19.7824V5.15094H27.2779V19.7822C27.2779 21.146 28.3226 22.2619 29.5993 22.2619H43.2963V29.3296H29.4831C28.2063 29.3296 27.1616 30.4456 27.1616 31.8094V46.4406H20.5457V31.8094C20.5457 30.4456 19.501 29.3296 18.2243 29.3296H4.64308V29.3299Z" fill="white"/>
</svg>
