<svg width="104" height="108" viewBox="0 0 104 108" fill="none" xmlns="http://www.w3.org/2000/svg">
<path d="M35.8985 0.00102103C41.7882 -0.0737245 48.6146 3.95322 52.1256 12.7962C56.3587 2.12984 65.418 -1.52906 71.8383 0.56407C74.0336 1.27971 75.9833 2.73195 77.0483 4.89957C78.1135 7.06693 78.1414 9.81026 77.0888 12.5037C75.4914 16.5904 71.6915 20.8493 64.8113 25.3103H101.482C102.78 25.3105 103.831 26.4131 103.832 27.7732V44.0215C103.832 45.3819 102.78 46.4847 101.482 46.4847H96.5212V105.336C96.5209 106.696 95.469 107.799 94.1716 107.799H10.1063C8.80887 107.799 7.75719 106.696 7.75695 105.336V46.4847H2.7956C1.49797 46.4847 0.446045 45.3819 0.446045 44.0215V27.7732C0.446292 26.4128 1.49821 25.3103 2.7956 25.3103H39.4429C32.5624 20.8493 28.7623 16.5906 27.1642 12.5042C26.111 9.81104 26.1382 7.06769 27.2027 4.90007C28.2672 2.73245 30.2161 1.28048 32.4112 0.564575C33.509 0.206624 34.684 0.0162805 35.8985 0.00102103ZM68.3038 4.9381C63.0075 4.87344 54.8294 9.6432 54.4845 25.31H55.032C55.0919 25.2725 55.1531 25.2378 55.216 25.206C66.4691 19.4196 71.4344 13.9779 72.7409 10.6356C73.394 8.96453 73.258 7.94292 72.8712 7.15563C72.4844 6.36835 71.6937 5.67599 70.4429 5.26812C69.8173 5.06457 69.0928 4.94767 68.3038 4.9381ZM35.9457 4.9381C35.157 4.94793 34.4327 5.06457 33.8075 5.26837C32.5573 5.67624 31.7671 6.36808 31.3808 7.15511C30.9942 7.94214 30.8585 8.96426 31.512 10.6353C32.8193 13.9779 37.7855 19.4196 49.0387 25.206C49.1018 25.2378 49.1635 25.2725 49.2237 25.31H49.7691C49.4198 9.64397 41.2408 4.87396 35.9457 4.9381ZM99.1332 30.2362H5.14515V41.5585H99.1332V30.2362ZM91.8223 46.4847H70.0394V102.873H91.8223V46.4847ZM65.3402 46.4847H38.9727V102.873H65.3405V46.4847H65.3402ZM34.2738 46.4847H12.4556V102.873H34.2738V46.4847Z" fill="white"/>
<path d="M83.8555 51.5549C85.1522 51.5753 86.1878 52.6931 86.1696 54.0525V80.5649C86.1856 81.9254 85.1467 83.0419 83.8491 83.0587C82.5515 83.0755 81.4865 81.9864 81.4705 80.626C81.4702 80.6058 81.4702 80.5854 81.4705 80.5649V54.0525C81.4522 52.6921 82.4893 51.574 83.787 51.5549C83.8099 51.5546 83.8326 51.5546 83.8555 51.5549Z" fill="white"/>
<path d="M83.8555 85.2775C85.1524 85.298 86.1881 86.416 86.1696 87.7757V91.2582C86.1856 92.6186 85.1468 93.7352 83.8491 93.752C82.5515 93.7688 81.4865 92.6797 81.4705 91.3192C81.4702 91.2991 81.4702 91.2787 81.4705 91.2582V87.7757C81.452 86.4153 82.4888 85.2969 83.7865 85.2775C83.8097 85.2773 83.8326 85.2773 83.8555 85.2775Z" fill="white"/>
</svg>
