<svg width="20" height="21" viewBox="0 0 20 21" fill="none" xmlns="http://www.w3.org/2000/svg">
<path d="M14.59 6.30273L8 12.9052L4.41 9.31843L3 10.7311L8 15.7406L16 7.72542L14.59 6.30273ZM10 0.712158C4.48 0.712158 0 5.20065 0 10.7311C0 16.2616 4.48 20.75 10 20.75C15.52 20.75 20 16.2616 20 10.7311C20 5.20065 15.52 0.712158 10 0.712158ZM10 18.7463C5.58 18.7463 2 15.1595 2 10.7311C2 6.30273 5.58 2.71595 10 2.71595C14.42 2.71595 18 6.30273 18 10.7311C18 15.1595 14.42 18.7463 10 18.7463Z" fill="#4FA5D5"/>
</svg>
