<svg width="81" height="20" viewBox="0 0 81 20" fill="none" xmlns="http://www.w3.org/2000/svg">
<g clip-path="url(#clip0)">
<path d="M5.36279 1.17456V4.87545H9.26928V14.5586H12.8181V1.17456H5.36279Z" fill="white"/>
<path d="M4.88405 0H4.02783V4.87537H4.88405V0Z" fill="white"/>
<path d="M7.45247 14.5614V10.8605H3.5488V1.18018H0V14.5614H7.45247Z" fill="white"/>
<path d="M8.79593 10.8604H7.93408V15.7357H8.79593V10.8604Z" fill="white"/>
<path d="M20.5971 0.794189H17.4482V15.24H20.5971V0.794189Z" fill="white"/>
<path d="M42.811 4.6697V15.2429H46.1908V9.85771C46.2162 7.21583 49.1904 7.0412 49.1904 7.0412V4.50635C47.5371 4.50635 46.1824 5.77377 46.1824 5.77377V4.6697H42.811Z" fill="white"/>
<path d="M56.7554 4.66699V15.243H59.9915V9.01286C59.9915 7.50603 62.394 7.40463 62.394 9.01286V15.243H65.5795V7.32296C65.5795 5.73445 63.4925 3.37985 59.9915 5.66122V4.66699H56.7554Z" fill="white"/>
<path d="M78.8057 0.794192C78.4763 0.794192 78.1544 0.891888 77.8806 1.07492C77.6068 1.25795 77.3935 1.51808 77.2676 1.8224C77.1416 2.12672 77.1088 2.46155 77.1733 2.78452C77.2378 3.10749 77.3966 3.40408 77.6296 3.63676C77.8627 3.86944 78.1596 4.02775 78.4827 4.09166C78.8057 4.15557 79.1405 4.1222 79.4446 3.99578C79.7487 3.86937 80.0085 3.65558 80.1911 3.38147C80.3736 3.10737 80.4708 2.78527 80.4702 2.45593C80.4702 2.23747 80.4272 2.02115 80.3435 1.81936C80.2598 1.61756 80.1371 1.43425 79.9825 1.27991C79.8279 1.12556 79.6444 1.00322 79.4425 0.919875C79.2405 0.83653 79.0241 0.793822 78.8057 0.794192ZM78.8057 3.89235C78.5238 3.89235 78.2483 3.80876 78.0139 3.65217C77.7795 3.49557 77.5969 3.27299 77.489 3.01258C77.3811 2.75216 77.3529 2.46561 77.4079 2.18916C77.4629 1.91271 77.5986 1.65877 77.7979 1.45946C77.9972 1.26015 78.2512 1.12442 78.5276 1.06943C78.8041 1.01444 79.0906 1.04266 79.3511 1.15053C79.6115 1.25839 79.834 1.44106 79.9906 1.67542C80.1472 1.90979 80.2308 2.18533 80.2308 2.4672C80.2278 2.84321 80.0764 3.20282 79.8094 3.46765C79.5425 3.73249 79.1817 3.88109 78.8057 3.88108V3.89235Z" fill="white"/>
<path d="M78.3801 3.30665H78.1436V1.56323H78.9491C79.2307 1.56323 79.5124 1.66181 79.5124 2.03077C79.5176 2.11677 79.4974 2.20239 79.4543 2.27701C79.4113 2.35162 79.3472 2.41193 79.2702 2.45043C79.3687 2.48986 79.4673 2.53493 79.4786 2.77715V3.09259C79.4786 3.19117 79.4927 3.22779 79.5659 3.27003V3.30665H79.2842C79.2562 3.16286 79.243 3.01658 79.2448 2.87009C79.2448 2.72645 79.2138 2.56028 78.935 2.56028H78.3717L78.3801 3.30665ZM78.3801 2.35749H78.9237C79.0955 2.35749 79.2786 2.31242 79.2786 2.05612C79.2786 1.79982 79.0814 1.77447 78.9632 1.77447H78.3801V2.35749Z" fill="white"/>
<path d="M50.2889 11.3533C50.2895 11.0849 50.3696 10.8228 50.5191 10.5999C50.6686 10.377 50.8808 10.2034 51.1289 10.1011C51.377 9.9988 51.6499 9.97232 51.9131 10.025C52.1762 10.0777 52.4178 10.2072 52.6074 10.3972C52.797 10.5872 52.926 10.8291 52.9782 11.0923C53.0303 11.3556 53.0033 11.6284 52.9004 11.8763C52.7976 12.1242 52.6236 12.3361 52.4004 12.4851C52.1772 12.6341 51.9149 12.7137 51.6465 12.7137C51.468 12.7137 51.2912 12.6785 51.1263 12.6101C50.9614 12.5417 50.8116 12.4414 50.6856 12.3151C50.5595 12.1887 50.4595 12.0387 50.3915 11.8737C50.3234 11.7087 50.2886 11.5318 50.2889 11.3533ZM49.9678 6.95113C50.4675 6.88604 50.9728 6.87565 51.4747 6.92015C53.0238 6.97366 52.8322 8.23264 52.8322 8.23264C52.2686 7.93121 51.6407 7.76988 51.0015 7.76228C49.8129 7.74256 47.4302 8.47486 47.4302 11.6153C47.4302 14.3923 49.6496 15.1894 50.9705 15.1894C51.6867 15.2088 52.3897 14.9942 52.9731 14.5782V15.2429H56.0318V8.04393C56.0318 6.63568 55.7755 6.26108 55.1361 5.55696C54.2433 4.56836 52.1337 4.4895 52.1337 4.4895H49.9678V6.95113Z" fill="white"/>
<path d="M71.0042 5.00205C67.6244 4.92037 66.1823 7.77631 66.1823 10.0154C66.1598 12.9559 68.0947 15.3499 70.976 15.1217C71.6397 15.0436 72.2662 14.7734 72.7786 14.3444V15.2429H76.0457V0.794189H72.7786V5.58225C72.1026 5.09499 71.0042 5.00205 71.0042 5.00205ZM70.9591 12.1109C70.5557 12.1109 70.1613 11.9912 69.8259 11.7671C69.4905 11.5429 69.2292 11.2242 69.0749 10.8515C68.9207 10.4787 68.8805 10.0685 68.9594 9.6729C69.0383 9.27727 69.2328 8.91393 69.5182 8.62886C69.8037 8.3438 70.1673 8.14981 70.563 8.07145C70.9588 7.99308 71.3689 8.03387 71.7414 8.18864C72.114 8.34341 72.4323 8.60521 72.656 8.94092C72.8797 9.27662 72.9988 9.67115 72.9983 10.0746C72.9975 10.6149 72.7824 11.1328 72.4 11.5146C72.0177 11.8965 71.4994 12.1109 70.9591 12.1109Z" fill="white"/>
<path d="M37.1216 16.9301C35.6232 16.8653 35.3078 15.9049 35.3078 15.9049H31.5449C32.3166 21.1858 41.5858 21.4055 42.0195 16.3358V4.66138H38.8678V5.76263C36.6991 3.56576 31.6266 5.15708 31.8012 10.1113C31.9618 14.7416 36.8709 16.1358 38.8678 14.3361V15.5838C38.8509 16.9864 37.1216 16.9301 37.1216 16.9301ZM36.8963 12.0096C36.4917 12.0096 36.0963 11.8896 35.76 11.6648C35.4236 11.44 35.1616 11.1205 35.0069 10.7467C34.8522 10.3729 34.8119 9.96163 34.891 9.5649C34.9701 9.16817 35.1652 8.80383 35.4514 8.51798C35.7377 8.23212 36.1023 8.0376 36.4991 7.95902C36.8959 7.88044 37.3072 7.92133 37.6807 8.07653C38.0543 8.23173 38.3735 8.49425 38.5978 8.83088C38.8222 9.16752 38.9416 9.56313 38.9411 9.96767C38.9396 10.5093 38.7236 11.0282 38.3403 11.4109C37.9571 11.7936 37.4379 12.0089 36.8963 12.0096Z" fill="white"/>
<path d="M26.2414 4.27832C23.6615 4.27832 21.1407 6.3907 21.1436 9.72262C21.1436 13.4742 23.4897 15.6373 26.5822 15.5528C28.9509 15.4767 30.5929 13.9868 31.1872 11.8913H27.9567C27.7905 12.2293 27.3314 12.618 26.3823 12.618C26.1431 12.6308 25.9039 12.5942 25.6795 12.5103C25.4552 12.4265 25.2506 12.2972 25.0785 12.1307C24.9064 11.9641 24.7705 11.7639 24.6793 11.5424C24.5882 11.3209 24.5437 11.083 24.5487 10.8436H31.3759C31.7618 6.93147 29.2495 4.27832 26.2414 4.27832ZM24.5036 8.61574C24.5552 8.1892 24.7611 7.79631 25.0826 7.5113C25.4041 7.2263 25.8188 7.06893 26.2485 7.06893C26.6781 7.06893 27.0929 7.2263 27.4143 7.5113C27.7358 7.79631 27.9418 8.1892 27.9933 8.61574H24.5036Z" fill="white"/>
</g>
<defs>
<clipPath id="clip0">
<path d="M0 0H80.4704V20H0V0Z" fill="white"/>
</clipPath>
</defs>
</svg>
