<svg width="151" height="24" viewBox="0 0 151 24" fill="none" xmlns="http://www.w3.org/2000/svg">
<path d="M117.116 15.5691V17.2329H118.871V21.5769H120.462V15.5691H117.116Z" fill="white"/>
<path d="M116.9 15.0417H116.516V17.2282H116.9V15.0417Z" fill="white"/>
<path d="M118.055 21.577V19.918H116.305V15.574H114.708V21.577H118.055Z" fill="white"/>
<path d="M118.659 19.918H118.271V22.1044H118.659V19.918Z" fill="white"/>
<path d="M123.953 15.4014H122.539V21.8839H123.953V15.4014Z" fill="white"/>
<path d="M133.921 17.1418V21.8839H135.436V19.4625C135.436 18.2782 136.783 18.2015 136.783 18.2015V17.0555C136.282 17.0892 135.805 17.2901 135.431 17.6261V17.1466L133.921 17.1418Z" fill="white"/>
<path d="M140.178 17.1418V21.8886H141.617V19.0933C141.617 18.9496 141.674 18.8118 141.775 18.7102C141.877 18.6086 142.015 18.5515 142.158 18.5515C142.302 18.5515 142.44 18.6086 142.542 18.7102C142.643 18.8118 142.7 18.9496 142.7 19.0933V21.8886H144.139V18.3357C144.139 17.6213 143.204 16.5713 141.631 17.5878V17.1418H140.178Z" fill="white"/>
<path d="M150.08 16.7871C149.952 16.788 149.828 16.7511 149.721 16.6811C149.615 16.6111 149.532 16.5111 149.483 16.3938C149.433 16.2765 149.42 16.1471 149.444 16.0222C149.468 15.8972 149.529 15.7823 149.619 15.692C149.708 15.6016 149.823 15.54 149.948 15.5148C150.072 15.4896 150.202 15.502 150.319 15.5505C150.437 15.599 150.538 15.6813 150.609 15.7871C150.679 15.8929 150.717 16.0173 150.717 16.1446C150.717 16.3141 150.65 16.4768 150.531 16.5972C150.411 16.7175 150.249 16.7858 150.08 16.7871ZM150.08 15.4014C149.931 15.4014 149.787 15.4454 149.663 15.5278C149.54 15.6102 149.444 15.7273 149.388 15.8642C149.332 16.0012 149.317 16.1518 149.346 16.297C149.376 16.4423 149.447 16.5755 149.552 16.6799C149.657 16.7844 149.791 16.8552 149.937 16.8835C150.082 16.9119 150.233 16.8963 150.369 16.839C150.506 16.7817 150.622 16.685 150.704 16.5614C150.785 16.4378 150.828 16.2927 150.827 16.1446C150.826 15.947 150.747 15.758 150.607 15.6187C150.467 15.4795 150.277 15.4014 150.08 15.4014Z" fill="white"/>
<path d="M149.883 16.1014H150.127C150.204 16.1014 150.286 16.1014 150.286 15.9671C150.286 15.8329 150.199 15.8377 150.147 15.8377H149.883V16.1014ZM149.883 16.5281H149.777V15.7466H150.137C150.266 15.7466 150.396 15.7897 150.396 15.9528C150.399 15.9921 150.39 16.0314 150.37 16.0656C150.351 16.0998 150.321 16.1273 150.286 16.1446C150.316 16.1534 150.342 16.1727 150.36 16.199C150.377 16.2253 150.385 16.257 150.381 16.2884V16.4322C150.381 16.4754 150.381 16.4946 150.42 16.5089H150.29C150.284 16.4436 150.284 16.3777 150.29 16.3124C150.29 16.25 150.29 16.1733 150.151 16.1733H149.897L149.883 16.5281Z" fill="white"/>
<path d="M137.134 18.1631C137.358 18.1392 137.585 18.1392 137.81 18.1631C138.505 18.1631 138.419 18.7529 138.419 18.7529C138.166 18.6183 137.885 18.546 137.599 18.5419C137.376 18.5369 137.155 18.579 136.95 18.6656C136.744 18.7522 136.56 18.8813 136.408 19.0444C136.256 19.2074 136.141 19.4008 136.069 19.6117C135.998 19.8226 135.971 20.0463 135.992 20.268C135.982 20.4804 136.016 20.6926 136.093 20.8911C136.169 21.0896 136.286 21.2701 136.435 21.4211C136.585 21.5722 136.764 21.6905 136.962 21.7685C137.16 21.8465 137.372 21.8825 137.584 21.8743C137.905 21.8823 138.219 21.7864 138.481 21.601V21.8983H139.852V18.6666C139.877 18.4623 139.854 18.2549 139.785 18.0609C139.716 17.867 139.603 17.6918 139.454 17.5494C139.066 17.2493 138.592 17.0813 138.102 17.0699H137.143L137.134 18.1631ZM137.277 20.1386C137.277 20.0182 137.313 19.9004 137.38 19.8003C137.447 19.7001 137.542 19.6221 137.653 19.576C137.765 19.5299 137.887 19.5179 138.005 19.5413C138.123 19.5648 138.232 19.6228 138.317 19.708C138.402 19.7932 138.46 19.9017 138.484 20.0198C138.507 20.1379 138.495 20.2604 138.449 20.3716C138.403 20.4829 138.325 20.578 138.225 20.6449C138.125 20.7118 138.007 20.7475 137.886 20.7475C137.725 20.7475 137.57 20.6834 137.456 20.5692C137.342 20.455 137.277 20.3001 137.277 20.1386Z" fill="white"/>
<path d="M146.551 20.4982C146.369 20.4982 146.192 20.4445 146.042 20.3438C145.891 20.2432 145.774 20.1002 145.704 19.9329C145.635 19.7655 145.617 19.5814 145.652 19.4037C145.688 19.2261 145.775 19.0629 145.903 18.9348C146.031 18.8068 146.194 18.7195 146.372 18.6842C146.55 18.6489 146.734 18.667 146.901 18.7363C147.068 18.8056 147.211 18.923 147.312 19.0736C147.413 19.2242 147.466 19.4013 147.466 19.5824C147.465 19.8249 147.368 20.0571 147.197 20.2286C147.025 20.4 146.793 20.4969 146.551 20.4982ZM146.575 17.3145C146.281 17.3073 145.989 17.3612 145.718 17.4727C145.446 17.5843 145.2 17.751 144.997 17.9625C144.793 18.1739 144.635 18.4254 144.534 18.7009C144.432 18.9765 144.389 19.2701 144.407 19.5632C144.407 20.877 145.266 21.9606 146.56 21.8551C146.858 21.8182 147.139 21.6967 147.37 21.5051V21.9079H148.838V15.4014H147.37V17.5494C147.129 17.4028 146.856 17.3142 146.575 17.2905" fill="white"/>
<path d="M131.265 20.431C131.084 20.4301 130.907 20.3756 130.757 20.2744C130.607 20.1732 130.491 20.0298 130.422 19.8624C130.354 19.695 130.336 19.511 130.372 19.3337C130.408 19.1563 130.496 18.9936 130.624 18.866C130.752 18.7384 130.915 18.6517 131.093 18.6167C131.27 18.5818 131.454 18.6002 131.621 18.6696C131.788 18.7391 131.931 18.8565 132.031 19.007C132.132 19.1575 132.185 19.3343 132.185 19.5153C132.184 19.7586 132.087 19.9915 131.914 20.1631C131.742 20.3347 131.508 20.431 131.265 20.431ZM131.37 22.6414C130.694 22.6127 130.555 22.162 130.555 22.162H128.858C129.213 24.5306 133.37 24.6265 133.566 22.3537V17.1418H132.128V17.6213C131.169 16.6336 128.877 17.348 128.959 19.5728C129.031 21.6489 131.231 22.277 132.128 21.4907V22.0517C132.128 22.6798 131.351 22.6558 131.351 22.6558" fill="white"/>
<path d="M125.703 18.9111C125.729 18.7215 125.822 18.5476 125.966 18.4217C126.111 18.2958 126.295 18.2265 126.487 18.2265C126.678 18.2265 126.863 18.2958 127.007 18.4217C127.151 18.5476 127.245 18.7215 127.271 18.9111H125.703ZM126.484 16.9645C126.173 16.9719 125.866 17.0411 125.582 17.1683C125.298 17.2955 125.042 17.478 124.829 17.7052C124.616 17.9324 124.451 18.1997 124.342 18.4915C124.234 18.7834 124.184 19.0939 124.197 19.405C124.197 21.088 125.252 22.0661 126.638 22.0229C127.117 22.017 127.58 21.8516 127.954 21.5529C128.328 21.2541 128.592 20.8391 128.704 20.3735H127.266C127.191 20.4896 127.084 20.5819 126.959 20.6396C126.833 20.6974 126.693 20.7182 126.556 20.6996C126.449 20.7049 126.342 20.6881 126.242 20.6503C126.142 20.6125 126.05 20.5544 125.973 20.4798C125.897 20.4051 125.836 20.3155 125.795 20.2163C125.754 20.1172 125.734 20.0108 125.736 19.9037H128.8C128.973 18.1536 127.841 16.9645 126.494 16.9645" fill="white"/>
<path d="M6.50551 19.6447L20.4487 8.24274C20.4601 8.23552 20.4689 8.22476 20.4737 8.2121C20.4785 8.19943 20.4791 8.18555 20.4753 8.17255C20.4715 8.15954 20.4636 8.14812 20.4527 8.14002C20.4418 8.13192 20.4286 8.12759 20.4151 8.12767L12.8873 7.59064C12.8757 7.58944 12.8645 7.58521 12.855 7.57837C12.8455 7.57153 12.838 7.56232 12.8331 7.55165C12.8283 7.54098 12.8263 7.52923 12.8274 7.51757C12.8285 7.50591 12.8326 7.49473 12.8394 7.48516L19.1828 0.10604C19.192 0.0967764 19.1979 0.0848988 19.2 0.0720639C19.202 0.0592291 19.2 0.0460809 19.1942 0.0344586C19.1883 0.0228363 19.179 0.0133206 19.1676 0.00724228C19.1561 0.00116397 19.143 -0.00117566 19.1301 0.000555264H19.0965L6.81238 8.94757C6.80119 8.95454 6.79251 8.96488 6.78757 8.9771C6.78264 8.98932 6.7817 9.00278 6.7849 9.01557C6.78809 9.02835 6.79526 9.0398 6.80536 9.04825C6.81547 9.05671 6.828 9.06175 6.84114 9.06264L13.7887 9.78185L6.41441 19.5392C6.4075 19.5491 6.4034 19.5607 6.40252 19.5727C6.40164 19.5847 6.40403 19.5968 6.40943 19.6076C6.41483 19.6184 6.42304 19.6275 6.4332 19.6341C6.44336 19.6406 6.45509 19.6442 6.46715 19.6447C6.47949 19.6495 6.49318 19.6495 6.50551 19.6447Z" fill="#808080"/>
<path d="M28.2928 7.46607L23.2104 2.52747C23.1734 2.4943 23.1258 2.47558 23.0761 2.47473H18.7608C18.7327 2.47463 18.7049 2.48058 18.6792 2.49216C18.6536 2.50374 18.6307 2.52068 18.6122 2.54185L17.3799 3.98028C17.3713 3.98927 17.3655 4.00068 17.3634 4.01298C17.3613 4.02529 17.3629 4.03793 17.3681 4.0493C17.3733 4.06067 17.3817 4.07022 17.3924 4.07672C17.4031 4.08322 17.4154 4.08637 17.4279 4.08576H22.4192C22.4443 4.08585 22.4691 4.09101 22.4922 4.10089C22.5153 4.11078 22.5361 4.1252 22.5535 4.14331L25.8619 7.36537C25.8721 7.37437 25.8802 7.38544 25.8858 7.39784C25.8914 7.41024 25.8943 7.4237 25.8943 7.43731C25.8943 7.45091 25.8914 7.46435 25.8858 7.47676C25.8802 7.48916 25.8721 7.50023 25.8619 7.50922L14.225 17.0987C14.2072 17.1127 14.1853 17.1203 14.1627 17.1203C14.1401 17.1203 14.1181 17.1127 14.1003 17.0987L12.8585 16.0726C12.8407 16.0586 12.8188 16.051 12.7962 16.051C12.7735 16.051 12.7516 16.0586 12.7338 16.0726L11.6119 16.9884C11.6015 16.9979 11.5933 17.0094 11.5877 17.0222C11.582 17.035 11.5791 17.0488 11.5791 17.0628C11.5791 17.0767 11.582 17.0906 11.5877 17.1034C11.5933 17.1162 11.6015 17.1276 11.6119 17.1371L14.1003 19.1845C14.1172 19.2003 14.1395 19.2091 14.1627 19.2091C14.1858 19.2091 14.2081 19.2003 14.225 19.1845L28.2928 7.60991C28.303 7.60091 28.3112 7.58984 28.3168 7.57744C28.3224 7.56504 28.3253 7.5516 28.3253 7.53799C28.3253 7.52439 28.3224 7.51094 28.3168 7.49854C28.3112 7.48614 28.303 7.47507 28.2928 7.46607Z" fill="white"/>
<path d="M9.52608 13.3348L2.45382 7.50921C2.44361 7.50021 2.43544 7.48914 2.42984 7.47674C2.42425 7.46434 2.42135 7.45089 2.42135 7.43729C2.42135 7.42368 2.42425 7.41023 2.42984 7.39782C2.43544 7.38542 2.44361 7.37435 2.45382 7.36536L5.7622 4.1433C5.77957 4.12519 5.80041 4.11076 5.82347 4.10088C5.84654 4.09099 5.87136 4.08584 5.89645 4.08575H11.4392C11.4806 4.08541 11.5209 4.07199 11.5543 4.04739L13.5585 2.60897C13.5704 2.60158 13.5795 2.59038 13.5843 2.57719C13.589 2.56399 13.5892 2.54958 13.5848 2.53627C13.5803 2.52296 13.5715 2.51154 13.5598 2.50385C13.5481 2.49616 13.5341 2.49265 13.5201 2.4939H5.22998C5.18034 2.49474 5.13267 2.51346 5.09573 2.54663L0.0324664 7.46606C0.0222626 7.47505 0.0140904 7.48612 0.00849268 7.49853C0.002895 7.51093 0 7.52437 0 7.53797C0 7.55158 0.002895 7.56502 0.00849268 7.57742C0.0140904 7.58982 0.0222626 7.60089 0.0324664 7.60989L8.54315 14.6198C8.56188 14.6377 8.58678 14.6477 8.61268 14.6477C8.63857 14.6477 8.66347 14.6377 8.6822 14.6198L9.54046 13.4883C9.55162 13.4783 9.56027 13.4658 9.56573 13.4518C9.57119 13.4379 9.57331 13.4228 9.57191 13.4079C9.57051 13.393 9.56564 13.3786 9.55768 13.3659C9.54972 13.3532 9.5389 13.3426 9.52608 13.3348Z" fill="white"/>
<path d="M39.7571 12.443C39.2664 12.4586 38.7778 12.3729 38.3216 12.1915C37.8655 12.01 37.4515 11.7366 37.1056 11.3882C36.1179 10.4005 36.1035 9.28808 36.1035 7.39415C36.1035 5.50022 36.1035 4.39263 37.1056 3.40491C37.4528 3.05913 37.8672 2.78834 38.3233 2.60936C38.7794 2.43038 39.2675 2.34702 39.7571 2.36444C41.6079 2.36444 43.0271 3.4193 43.3867 5.49063H41.4113C41.3581 5.09379 41.1594 4.73084 40.8537 4.47216C40.5481 4.21348 40.1573 4.0775 39.7571 4.09056C39.526 4.08108 39.2957 4.12206 39.082 4.21066C38.8684 4.29926 38.6766 4.43336 38.5201 4.6036C38.1605 5.02075 38.0406 5.50502 38.0406 7.39415C38.0406 9.28329 38.1653 9.79152 38.5201 10.1895C38.6766 10.3597 38.8684 10.4938 39.082 10.5824C39.2957 10.671 39.526 10.712 39.7571 10.7025C40.1589 10.716 40.5516 10.5805 40.8595 10.3221C41.1675 10.0636 41.3692 9.7005 41.4257 9.30245H43.3867C43.0271 11.3882 41.5935 12.443 39.7571 12.443Z" fill="white"/>
<path d="M48.2775 10.6929C47.9035 11.5799 47.2226 12.3615 46.0671 12.3615H44.8876V10.6354H45.6643C45.8801 10.6542 46.0962 10.6039 46.2815 10.4919C46.4668 10.3799 46.6117 10.2118 46.6952 10.0121L46.9877 9.3312L43.8184 2.46033H45.8322L47.9035 7.2311L49.7782 2.46033H51.7872L48.2775 10.6929Z" fill="white"/>
<path d="M58.2742 12.3471V4.19603H54.9179V12.3471H53V2.46033H60.1921V12.3471H58.2742Z" fill="white"/>
<path d="M62.5083 12.3471V2.46033H69.0483V4.19603H64.4598V6.51669H68.3675V8.238H64.4598V10.6354H69.0483V12.3471H62.5083Z" fill="white"/>
<path d="M74.7538 8.63597H72.8359V12.3471H70.918V2.46033H74.7538C76.8107 2.46033 78.0238 3.86519 78.0238 5.54815C78.0238 7.23111 76.8107 8.63597 74.7538 8.63597ZM74.6579 4.18644H72.8503V6.89548H74.6579C74.8425 6.90647 75.0275 6.87958 75.2014 6.81647C75.3753 6.75337 75.5344 6.6554 75.669 6.52854C75.8037 6.40168 75.9109 6.24863 75.9843 6.0788C76.0576 5.90896 76.0954 5.72593 76.0954 5.54095C76.0954 5.35597 76.0576 5.17294 75.9843 5.00311C75.9109 4.83328 75.8037 4.68024 75.669 4.55338C75.5344 4.42652 75.3753 4.32853 75.2014 4.26543C75.0275 4.20233 74.8425 4.17545 74.6579 4.18644Z" fill="white"/>
<path d="M80.8576 9.35515C80.9224 9.7543 81.1295 10.1165 81.4406 10.3747C81.7518 10.633 82.1459 10.7699 82.5502 10.76C82.788 10.7678 83.0246 10.7234 83.2433 10.6298C83.462 10.5361 83.6575 10.3956 83.816 10.2182C84.1372 9.85859 84.2619 9.44145 84.2955 8.22838H81.222V6.55022H84.2955C84.2523 5.3803 84.1276 4.96315 83.816 4.60355C83.5984 4.37258 83.3213 4.20623 83.0152 4.12287C82.709 4.03952 82.3858 4.04241 82.0812 4.13121C81.7766 4.22001 81.5024 4.39127 81.2891 4.62608C81.0757 4.86089 80.9313 5.15012 80.872 5.46181H78.9541C79.0508 4.58242 79.4801 3.77328 80.154 3.20011C80.8279 2.62693 81.6954 2.33309 82.5789 2.37877C83.067 2.36239 83.5533 2.44627 84.0077 2.62523C84.4621 2.80419 84.875 3.07443 85.2208 3.41924C86.2086 4.40696 86.2229 5.51935 86.2229 7.40848C86.2229 9.29762 86.2229 10.4148 85.2208 11.4025C84.875 11.7473 84.4621 12.0176 84.0077 12.1965C83.5533 12.3755 83.067 12.4594 82.5789 12.443C81.6952 12.4862 80.8283 12.1909 80.1548 11.6172C79.4813 11.0434 79.0519 10.2345 78.9541 9.35515H80.8576Z" fill="white"/>
<path d="M93.0458 12.3471V4.196H90.682V7.07286C90.682 11.2299 89.6655 12.3471 87.6086 12.3471H86.8462V10.621H87.1243C88.112 10.621 88.8216 10.036 88.8216 6.9386V2.44592H94.9781V12.3471H93.0458Z" fill="white"/>
<path d="M97.2988 12.3471V2.46033H103.815V4.19603H99.2551V6.51669H103.158V8.238H99.2551V10.6354H103.839V12.3471H97.2988Z" fill="white"/>
<path d="M105.733 12.3471V2.46031H107.651V12.3471H105.733ZM111.156 12.3471L107.68 7.15916L110.878 2.44592H113.184L109.861 7.09204L113.52 12.3663L111.156 12.3471Z" fill="white"/>
<path d="M118.396 4.19596V12.347H116.478V4.19596H113.879V2.46985H120.98V4.19596H118.396Z" fill="white"/>
<path d="M126.389 8.63597H124.471V12.3471H122.553V2.46033H126.389C128.445 2.46033 129.654 3.86519 129.654 5.54815C129.654 7.23111 128.445 8.63597 126.389 8.63597ZM126.288 4.18644H124.485V6.89548H126.288C126.473 6.90647 126.657 6.87958 126.831 6.81647C127.005 6.75337 127.164 6.6554 127.299 6.52854C127.434 6.40168 127.541 6.24863 127.614 6.0788C127.688 5.90896 127.725 5.72593 127.725 5.54095C127.725 5.35597 127.688 5.17294 127.614 5.00311C127.541 4.83328 127.434 4.68024 127.299 4.55338C127.164 4.42652 127.005 4.32853 126.831 4.26543C126.657 4.20233 126.473 4.17545 126.288 4.18644Z" fill="white"/>
<path d="M136.784 12.3471V6.00844L132.948 12.3615H131.222V2.46033H133.14V8.79899L136.975 2.46033H138.701V12.3471H136.784Z" fill="white"/>
<path d="M141.046 12.3471V2.46031H142.964V12.3471H141.046ZM146.469 12.3471L142.993 7.15916L146.191 2.44592H148.497L145.179 7.09204L148.833 12.3663L146.469 12.3471Z" fill="white"/>
</svg>
