<svg width="60" height="62" viewBox="0 0 60 62" fill="none" xmlns="http://www.w3.org/2000/svg">
<g clip-path="url(#clip0)">
<path d="M60 61.5439L59.5292 49.303C59.5292 49.303 60.3066 42.1205 39.9526 40.3358L39.7336 36.3942C39.854 36.2738 39.9745 36.1424 40.0949 36.011C42.3285 33.5804 43.8175 30.011 44.4197 25.7081C44.5511 24.7337 44.6277 23.8249 44.6606 23.0256L44.6715 20.4745V13.3687C44.5292 11.1242 43.7409 7.47818 40.8942 5.57308C39.427 4.53293 37.8613 4.63147 37.8613 4.63147C38.7591 3.65702 40.3248 4.11687 40.3248 4.11687C38.2883 0.197163 35.9562 3.59132 35.9562 3.59132L36.3175 1.70811L34.938 3.3614C34.1606 0.361397 30.5146 0.13147 30.5146 0.13147C31.1715 0.284754 31.8285 1.48913 31.8285 1.48913C21.5146 -1.64225 17.0803 7.12782 17.0037 7.2811C17.792 6.15337 18.9088 6.60227 18.9088 6.60227C16.0401 8.51833 15.2628 11.365 15.1314 13.4234V20.2994V20.3103L15.1423 23.0147C15.1861 23.8139 15.2628 24.7227 15.3942 25.6972C15.9964 30.0001 17.4964 33.5585 19.719 36.0001C19.8942 36.1972 20.0803 36.3833 20.2774 36.5694L20.0584 40.3249C-0.30657 42.1205 0.470803 49.303 0.470803 49.303L0 61.5439H26.2336V61.2811C25.8504 49.2921 22.1277 40.949 21.8102 40.2592V40.2154V40.2045L21.9307 37.938C24.1204 39.4052 26.781 40.1607 29.8905 40.1716H29.9015C32.0255 40.1607 33.9416 39.8103 35.6496 39.1096C36.5037 38.7592 37.3029 38.3322 38.0474 37.8066L38.1788 40.2045V40.2154V40.2264V40.2373C37.9927 40.6315 34.073 49.1935 33.7336 61.5548H60V61.5439ZM29.9015 38.4088C26.1679 38.3979 23.1788 37.1935 21.0109 34.8285C17.8796 31.4234 17.0693 26.2884 16.8942 23.0585C16.9599 20.0475 17.2555 15.5037 18.4161 14.0694C18.4161 14.0694 19.8942 11.814 29.8905 11.814H29.9015C30.1971 11.814 30.4708 11.814 30.7555 11.8249C30.7774 11.8249 30.7993 11.8249 30.8212 11.8249C30.8759 11.8249 30.9307 11.8249 30.9854 11.8249C40.0182 11.9782 41.3869 14.0694 41.3869 14.0694C42.5365 15.4928 42.8321 20.0037 42.9088 23.0147C42.7336 26.2446 41.9343 31.4015 38.792 34.8285C36.6241 37.1826 33.635 38.3869 29.9015 38.4088Z" fill="#173856"/>
<path d="M32.3876 45.0547C32.3876 45.0547 32.6504 43.3686 32.3876 43.2591C32.1358 43.1606 30.1979 42.2956 30.0117 42.208H30.0008H29.9898C29.9789 42.208 29.9679 42.219 29.946 42.2299C29.5957 42.3832 27.8548 43.1606 27.6139 43.2591C27.3512 43.3686 27.6139 45.0547 27.6139 45.0547L28.7198 46.5328L26.2344 61.5547H33.7344L31.2818 46.5328L32.3876 45.0547Z" fill="#173856"/>
</g>
<defs>
<clipPath id="clip0">
<rect width="60" height="61.5438" fill="white"/>
</clipPath>
</defs>
</svg>
