<svg width="63" height="64" viewBox="0 0 63 64" fill="none" xmlns="http://www.w3.org/2000/svg">
<g clip-path="url(#clip0)">
<path d="M50.1428 20.2442C50.2567 20.1759 50.3705 20.0848 50.4502 20.0165C50.4616 20.0051 50.4958 19.9823 50.5186 19.9481C50.5983 19.8684 50.6666 19.7546 50.6666 19.6293C50.678 19.4585 50.5869 19.265 50.4958 19.1284C50.3364 18.8323 49.8582 18.3313 48.4008 18.2061C48.4008 18.2061 48.2528 6.74053 38.1421 3.06289V11.3063C38.1421 11.8072 37.7322 12.2171 37.2312 12.2171C36.7303 12.2171 36.3204 11.8072 36.3204 11.3063V2.60745C36.3204 2.60745 36.3204 2.60745 36.3204 2.59607V2.23172C36.3204 1.07036 35.3867 0.136719 34.2254 0.136719H28.1795C27.0181 0.136719 26.0845 1.07036 26.0845 2.23172V2.50498V11.2949C26.0845 11.7959 25.6746 12.2057 25.1736 12.2057C24.6726 12.2057 24.2627 11.7959 24.2627 11.2949V3.0515C14.1521 6.72914 14.004 18.1947 14.004 18.1947C12.6833 18.3086 12.1709 18.7299 11.966 19.0259C11.8293 19.2081 11.6472 19.5155 11.7724 19.7546C11.7952 19.8229 11.8407 19.8798 11.8863 19.9368C11.8863 19.9368 11.8863 19.9368 11.8977 19.9481C11.9204 19.9709 11.9546 20.0051 11.9774 20.0165C12.0571 20.0848 12.1709 20.1872 12.2848 20.2442C12.8768 20.6313 14.1748 20.9273 15.8486 21.155C15.803 22.0431 15.7689 24.1609 16.1218 26.7341C16.657 30.5484 17.8639 33.7934 19.6401 36.2413C19.845 36.526 20.0613 36.7992 20.2777 37.0611C20.3915 37.1977 20.5054 37.323 20.6192 37.4482C20.7331 37.5621 20.8356 37.6873 20.9494 37.8012C20.995 37.8467 21.0405 37.8809 21.0861 37.9264L20.8583 41.9457C19.4237 42.0709 18.0916 42.2189 16.8505 42.3897V56.5082H45.5429V42.3897C44.3019 42.2189 42.9697 42.0709 41.5351 41.9457L41.3074 37.9378C41.3529 37.8923 41.3985 37.8467 41.4554 37.8012C41.5693 37.6873 41.6831 37.5735 41.7856 37.4482C41.8994 37.323 42.0133 37.1977 42.1272 37.0611C42.3435 36.7992 42.5598 36.526 42.7648 36.2413C44.541 33.7934 45.7479 30.5484 46.283 26.7341C46.636 24.1609 46.5904 22.0431 46.5449 21.155C48.23 20.9273 49.5508 20.6313 50.1428 20.2442ZM39.702 41.809V41.8773V41.9115C39.6906 42.2645 39.2693 48.5495 31.1853 48.5495C22.8736 48.5495 22.6687 41.9001 22.6687 41.9001L22.6801 41.8204H22.6687L22.8053 39.3838C24.7068 40.6932 26.9612 41.4674 29.5458 41.7065C29.8532 41.7293 30.172 41.7521 30.4794 41.7635C30.6274 41.7749 30.7868 41.7749 30.9348 41.7749C31.0145 41.7749 31.0942 41.7749 31.1739 41.7749H31.1853C31.265 41.7749 31.3447 41.7749 31.4244 41.7749C31.5725 41.7749 31.7319 41.7635 31.8799 41.7635C32.1987 41.7521 32.5061 41.7293 32.8135 41.7065C35.3981 41.4674 37.6411 40.6932 39.5426 39.3952L39.702 41.809ZM41.6148 34.6928C41.296 35.1711 40.9544 35.6151 40.5787 36.0478C40.5331 36.1047 40.4762 36.1616 40.4307 36.2186C39.9297 36.7651 39.3718 37.2661 38.7797 37.6873C37.1629 38.8601 35.2387 39.5774 33.0185 39.8279C32.6883 39.862 32.3581 39.8962 32.0279 39.9076C31.8002 39.919 31.5611 39.9304 31.322 39.9304C31.2764 39.9304 31.2423 39.9304 31.1967 39.9304C31.1512 39.9304 31.117 39.9304 31.0715 39.9304C30.8324 39.9304 30.5933 39.919 30.3656 39.9076C30.024 39.8962 29.6938 39.862 29.375 39.8279C27.1547 39.5774 25.2191 38.8601 23.6137 37.6873C23.0217 37.2547 22.4751 36.7651 21.9628 36.2186C21.9058 36.1616 21.8603 36.1047 21.8148 36.0478C21.439 35.6151 21.0861 35.1597 20.7786 34.6928C17.5792 29.8994 17.5906 23.2159 17.6589 21.36C23.3405 21.8951 31.2195 21.8382 31.2195 21.8382C31.2195 21.8382 39.0644 21.8951 44.7459 21.36C44.8142 23.2045 44.8142 29.8994 41.6148 34.6928Z" fill="#173856"/>
<path d="M0.489593 51.2707L0 64.0001H14.1185V42.8337C-0.13663 45.4866 0.489593 51.2707 0.489593 51.2707Z" fill="#173856"/>
<path d="M61.9043 51.2707C61.9043 51.2707 62.5305 45.4866 48.2754 42.8337V64.0001H62.3939L61.9043 51.2707Z" fill="#173856"/>
</g>
<defs>
<clipPath id="clip0">
<rect width="62.3946" height="64" fill="white"/>
</clipPath>
</defs>
</svg>
