<svg width="63" height="64" viewBox="0 0 63 64" fill="none" xmlns="http://www.w3.org/2000/svg">
<g clip-path="url(#clip0)">
<path d="M62.3946 64.0001L61.905 51.3504C61.905 51.3504 62.7134 43.9268 41.5471 42.0937L41.308 37.9492C41.4674 37.7898 41.6381 37.619 41.7976 37.4482C44.1203 34.9206 45.6687 31.2088 46.295 26.7341C46.6707 23.9787 46.591 21.7357 46.5455 20.9843C46.4885 17.4774 46.2836 15.1661 46.09 13.7087L59.2976 8.76721L31.1973 0.136719L3.09696 8.76721H3.08557V10.68V22.453L1.59402 25.4931H3.99644H6.39886L4.90731 22.453V9.45036L16.2932 13.7087C16.0996 15.1888 15.8947 17.5571 15.8378 21.155C15.7922 22.0431 15.7581 24.1609 16.111 26.7341C16.7372 31.2088 18.2971 34.9092 20.6084 37.4482C20.7678 37.619 20.9272 37.7784 21.0866 37.9492L20.8475 42.105C-0.318803 43.9382 0.489593 51.3618 0.489593 51.3618L0 64.0001H62.3946ZM31.1859 19.2764V19.1967V19.2764L31.2087 19.265V19.2764L40.8867 15.6557C43.2094 16.874 44.1203 19.4244 44.4505 21.7016C44.3366 21.6788 44.2569 21.6446 44.2569 21.6446C42.5035 20.9046 37.7328 20.7224 35.2507 21.3258C33.6339 21.7243 32.8027 22.1228 32.4725 22.2253C31.8349 22.4416 31.1973 22.5327 31.1973 22.5327C31.1973 22.5327 30.5597 22.4303 29.9221 22.2253C29.5919 22.1115 28.7607 21.713 27.1439 21.3258C24.6618 20.7224 19.8911 20.8932 18.1377 21.6446C18.1377 21.6446 18.058 21.6788 17.9441 21.7016C18.2743 19.4244 19.1966 16.874 21.5193 15.6557L31.1859 19.2764ZM42.7881 23.0223V24.2178C42.6629 27.7475 41.0575 28.0321 41.0575 28.0321C38.7234 28.5217 35.9452 28.3509 35.9452 28.3509C34.6586 28.2371 34.1235 27.0757 34.1235 27.0757L33.1215 25.0604C32.7799 24.2065 32.8596 23.6372 32.8596 23.6372C33.2126 21.3714 38.3476 21.5991 38.3476 21.5991C42.7312 21.4169 42.7881 23.0223 42.7881 23.0223ZM29.2845 25.0718L28.2825 27.0871C28.2825 27.0871 27.7588 28.2484 26.4608 28.3623C26.4608 28.3623 23.6826 28.5331 21.3485 28.0435C21.3485 28.0435 19.7431 27.7589 19.6179 24.2292V23.0337C19.6179 23.0337 19.6748 21.4283 24.0697 21.6219C24.0697 21.6219 29.1934 21.3941 29.5577 23.6599C29.5463 23.6486 29.626 24.2178 29.2845 25.0718ZM17.8758 26.1534L17.8872 26.1762C17.8872 26.1762 17.7164 24.9352 17.7961 23.2728C18.0352 23.3753 18.5817 23.7852 19.0144 25.3223C19.0144 25.3223 19.5951 28.6583 21.8153 28.7722C21.8153 28.7722 23.1019 28.9316 23.9217 28.9658C24.7415 28.9885 26.0623 29.0341 26.0623 29.0341C26.0623 29.0341 28.1345 29.1024 28.9315 27.2009C28.9315 27.2009 30.2409 23.9787 31.1859 23.9787C32.1309 23.9787 33.4403 27.2009 33.4403 27.2009C34.2373 29.1024 36.3096 29.0341 36.3096 29.0341C36.3096 29.0341 37.6417 28.9999 38.4501 28.9658C39.2699 28.943 40.5565 28.7722 40.5565 28.7722C42.7767 28.6697 43.3574 25.3223 43.3574 25.3223C43.7901 23.7966 44.3252 23.3867 44.5643 23.2842C44.644 24.9465 44.4732 26.1876 44.4732 26.1876L44.496 26.1534C44.0861 29.3643 43.0272 33.3835 40.4085 36.2299C38.1541 38.6779 35.0457 39.9303 31.1631 39.9531C27.2806 39.9417 24.1722 38.6893 21.9178 36.2299C19.3446 33.3721 18.2857 29.3643 17.8758 26.1534ZM22.692 41.9001L22.8287 39.3838C25.1172 40.9551 27.9296 41.7635 31.1973 41.7635H31.2087C34.4764 41.7521 37.2774 40.9551 39.5659 39.3838L39.7139 41.957V41.9684L31.1859 54.8231L22.692 41.9684V41.957V41.9001Z" fill="#173856"/>
</g>
<defs>
<clipPath id="clip0">
<rect width="62.3946" height="64" fill="white"/>
</clipPath>
</defs>
</svg>
