<svg width="63" height="64" viewBox="0 0 63 64" fill="none" xmlns="http://www.w3.org/2000/svg">
<g clip-path="url(#clip0)">
<path d="M28.089 52.2156L27.4514 51.3617L27.2123 51.0429L27.1553 50.6444C27.1553 50.633 27.1326 50.4622 27.0984 50.2231L26.5519 50.7924L25.3222 52.0562L15.8947 42.5262C-0.182173 45.0198 0.489593 51.2706 0.489593 51.2706L0 64H26.2672L26.3128 63.7381L28.1914 52.3523L28.089 52.2156Z" fill="#173856"/>
<path d="M61.9056 51.2706C61.9056 51.2706 62.5774 45.0197 46.5005 42.5376L37.073 52.0676L35.4335 50.3825L35.331 50.2686C35.3082 50.4963 35.2854 50.6444 35.2741 50.6557L35.2627 50.7127L35.2057 51.0542L34.9666 51.373L34.2266 52.3636L36.0825 63.7495L36.128 64.0114H62.3952L61.9056 51.2706Z" fill="#173856"/>
<path d="M11.8863 19.8C11.9204 19.8342 11.9546 19.8684 11.9774 19.8797C12.0571 19.9481 12.1709 20.0505 12.2848 20.1075C12.8768 20.4946 14.1748 20.7906 15.8486 21.0183C15.803 21.9064 15.7689 24.0242 16.1332 26.5974C16.6683 30.4117 17.8752 33.6566 19.6514 36.1046C19.8564 36.3893 20.0727 36.6625 20.289 36.9244C20.4029 37.061 20.5168 37.1863 20.6306 37.3115C20.7445 37.4254 20.847 37.5506 20.9608 37.6645C23.1924 39.9303 26.0845 41.2396 29.5799 41.5584C29.8873 41.5812 30.2061 41.604 30.5136 41.6154C30.6616 41.6268 30.821 41.6268 30.969 41.6268H31.4586C31.6066 41.6268 31.766 41.6154 31.914 41.6154C32.2328 41.604 32.5403 41.5812 32.8477 41.5584C36.3431 41.2396 39.2238 39.9416 41.4668 37.6645C41.5806 37.5506 41.6945 37.4368 41.797 37.3115C41.9108 37.1863 42.0247 37.061 42.1385 36.9244C42.3549 36.6625 42.5712 36.3893 42.7762 36.1046C44.5524 33.6566 45.7593 30.4117 46.2944 26.5974C46.6474 24.0242 46.6018 21.9064 46.5676 21.0183C48.2414 20.802 49.5621 20.506 50.1542 20.1188C50.2681 20.0505 50.3819 19.9594 50.4616 19.8911C50.473 19.8797 50.5072 19.857 50.5299 19.8228C50.6096 19.7431 50.678 19.6292 50.678 19.504C50.6893 19.3332 50.5983 19.1397 50.5072 19.003C50.3478 18.707 49.8696 18.206 48.4122 18.0808C48.4122 18.0808 48.2641 6.61519 38.1535 2.93756V11.1809C38.1535 11.6819 37.7436 12.0918 37.2426 12.0918C36.7416 12.0918 36.3317 11.6819 36.3317 11.1809V2.47073C36.3317 2.47073 36.3317 2.47073 36.3317 2.45935V2.095C36.3204 0.933642 35.3867 0 34.2254 0H28.1795C27.0181 0 26.0845 0.933642 26.0845 2.095V2.36826V11.1582C26.0845 11.6591 25.6746 12.069 25.1736 12.069C24.6726 12.069 24.2627 11.6591 24.2627 11.1582V2.91478C14.1521 6.59242 14.004 18.058 14.004 18.058C12.6833 18.1719 12.1709 18.5931 11.966 18.8892C11.8293 19.0713 11.6472 19.3788 11.7724 19.6179C11.7952 19.6862 11.8407 19.7431 11.8863 19.8ZM31.2195 21.6901C31.2195 21.6901 39.0644 21.747 44.7459 21.2119C44.8142 23.0678 44.8142 29.7513 41.6262 34.5561C41.3074 35.0343 40.9658 35.4784 40.5901 35.911C40.5445 35.968 40.4876 36.0249 40.4421 36.0818C39.9411 36.6284 39.3832 37.1293 38.7911 37.5506C37.1743 38.7234 35.2501 39.4407 33.0298 39.6912C32.6997 39.7253 32.3695 39.7595 32.0393 39.7709C31.8116 39.7822 31.5725 39.7936 31.3334 39.7936H31.0829C30.8438 39.7936 30.6047 39.7822 30.3769 39.7709C30.0354 39.7595 29.7052 39.7253 29.3864 39.6912C27.1661 39.4407 25.2305 38.7234 23.6251 37.5506C23.033 37.118 22.4865 36.6284 21.9742 36.0818C21.9172 36.0249 21.8717 35.968 21.8261 35.911C21.4504 35.4784 21.0974 35.0229 20.79 34.5561C17.5906 29.7627 17.602 23.0792 17.6703 21.2233C23.3405 21.747 31.2195 21.6901 31.2195 21.6901Z" fill="#173856"/>
<path d="M32.541 51.9424L33.6909 50.4053C33.6909 50.4053 33.8276 49.5627 33.8162 49.0162C33.8162 48.9934 33.8162 48.9706 33.8162 48.9593C33.8162 48.9479 33.8162 48.9365 33.8162 48.9251C33.8162 48.9023 33.8162 48.8909 33.8162 48.8682C33.8162 48.8454 33.8162 48.8112 33.8048 48.7885C33.8048 48.7657 33.8048 48.7543 33.7934 48.7429C33.7934 48.7315 33.7934 48.7202 33.782 48.7088C33.782 48.6974 33.7706 48.686 33.7706 48.6746L33.6112 48.5152C33.5429 48.4811 33.4291 48.4355 33.3038 48.3786C33.281 48.3672 33.2469 48.3558 33.2241 48.3444C33.1899 48.3216 33.1444 48.3103 33.0989 48.2875C33.0761 48.2761 33.0533 48.2647 33.0192 48.2533C32.9964 48.2419 32.9736 48.2306 32.9395 48.2192H32.9281C32.8939 48.2078 32.8598 48.1964 32.837 48.1736H32.8256C32.7801 48.1509 32.7345 48.1281 32.689 48.1167C32.5979 48.0825 32.5182 48.037 32.4271 48.0028C32.4043 47.9915 32.3702 47.9801 32.3474 47.9687C32.1652 47.889 31.9831 47.8093 31.8236 47.741C31.8009 47.7296 31.7667 47.7182 31.7439 47.7068C31.7212 47.6954 31.6984 47.684 31.6756 47.684C31.6415 47.6727 31.6073 47.6499 31.5732 47.6385C31.5276 47.6157 31.4707 47.593 31.4365 47.5816C31.4138 47.5702 31.391 47.5588 31.3796 47.5588H31.3682C31.3568 47.5474 31.3454 47.5474 31.3341 47.536C31.3227 47.536 31.3227 47.5246 31.3113 47.5246C31.2999 47.5132 31.2885 47.5132 31.2771 47.5132C31.2657 47.5132 31.2544 47.5019 31.2544 47.5019H31.243C31.2316 47.5019 31.2316 47.5019 31.2316 47.4905H31.2202H31.2088C31.1747 47.5019 31.1063 47.536 30.9925 47.5816C30.9697 47.593 30.9583 47.593 30.9356 47.6043C30.8217 47.6613 30.6737 47.7182 30.5029 47.7979C30.4687 47.8093 30.4346 47.8207 30.4004 47.8434C30.3549 47.8662 30.2979 47.889 30.2524 47.9118C30.2182 47.9231 30.1841 47.9459 30.1499 47.9573C30.1272 47.9687 30.1158 47.9801 30.093 47.9801C30.0475 48.0028 29.9905 48.0256 29.945 48.0484C29.9108 48.0598 29.8767 48.0825 29.8425 48.0939C29.8197 48.1053 29.8084 48.1167 29.7856 48.1167C29.7173 48.1509 29.649 48.1736 29.592 48.2078C29.5692 48.2192 29.5579 48.2306 29.5351 48.2306H29.5237C29.5009 48.2419 29.4782 48.2533 29.4554 48.2533C29.4098 48.2761 29.3643 48.2875 29.3301 48.3103C29.296 48.333 29.2504 48.3444 29.2163 48.3558C29.1821 48.3672 29.1594 48.3786 29.1252 48.39C29.1024 48.4013 29.0797 48.4127 29.0569 48.4127C29.0341 48.4241 29.0113 48.4355 28.9886 48.4469C28.9772 48.4469 28.9658 48.4583 28.9544 48.4583C28.9316 48.4697 28.9089 48.481 28.8975 48.481C28.8861 48.481 28.8747 48.4924 28.8747 48.4924C28.8519 48.5038 28.8292 48.5152 28.8064 48.5152C28.795 48.5152 28.795 48.5266 28.7836 48.5266C28.7836 48.5266 28.7836 48.5266 28.7722 48.5266L28.6812 48.6177C28.6812 48.6177 28.6812 48.6177 28.6812 48.6291C28.6812 48.6405 28.6698 48.6518 28.6698 48.6632C28.6698 48.6746 28.6584 48.6974 28.6584 48.7088C28.6584 48.7088 28.6584 48.7202 28.6584 48.7315C28.6584 48.7429 28.6584 48.7429 28.6584 48.7543C28.6584 48.7771 28.647 48.8112 28.647 48.834C28.647 48.8454 28.647 48.8568 28.647 48.8682C28.647 48.8796 28.647 48.8909 28.647 48.9023C28.647 48.9137 28.647 48.9251 28.647 48.9251C28.647 48.9479 28.647 48.9706 28.647 48.9934C28.6356 49.5513 28.7722 50.3939 28.7722 50.3939L29.9222 51.931L29.7856 52.7849L27.9297 63.9886H34.5563L32.7004 52.6255L32.541 51.9424Z" fill="#173856"/>
<path d="M32.5059 45.0766L33.3484 45.9419L34.5895 47.2172L35.0905 47.7295C35.1132 47.7751 35.1474 47.8206 35.1702 47.8775C35.1815 47.8775 35.2043 47.8662 35.2157 47.8662L35.5231 48.185L37.083 49.7904L44.4041 42.3895L44.2789 42.2301L42.3205 39.8391L32.5059 45.0766Z" fill="#173856"/>
<path d="M18.1155 42.2301L17.9902 42.3895L25.3114 49.7904L26.0628 49.0161L27.1786 47.8662L27.395 47.6384L27.7365 47.2855L29.3875 45.6004L29.8885 45.0766L20.0738 39.8391L18.1155 42.2301Z" fill="#173856"/>
</g>
<defs>
<clipPath id="clip0">
<rect width="62.3946" height="64" fill="white"/>
</clipPath>
</defs>
</svg>
