<svg width="60" height="62" viewBox="0 0 60 62" fill="none" xmlns="http://www.w3.org/2000/svg">
<g clip-path="url(#clip0)">
<path d="M10.4765 42.0328L12.7429 44.3759L19.6407 43.3467L18.8633 40.927L18.7538 40.5985L18.5677 40.0401L18.3816 39.4598C18.3816 39.4598 12.929 39.8321 9.44727 40.8394L10.3451 41.8905L10.4546 42.0219L10.4765 42.0328Z" fill="#173856"/>
<path d="M60.0109 61.5437L59.5401 49.3905C59.5401 49.3905 60 45.1751 50.9891 42.427L47.7372 45.7883L38.6496 44.4416L39.6022 41.4634L39.9197 40.478L39.9635 40.3467L39.7445 36.5036C39.9088 36.3503 40.062 36.1861 40.2153 36.0218C42.1533 33.9087 43.5328 30.9525 44.2555 27.3832C44.2664 27.3284 44.2774 27.2846 44.2883 27.2299C44.2883 27.2189 44.2883 27.2189 44.2883 27.208C44.2883 27.208 44.2883 27.208 44.2883 27.197C44.3102 27.0875 44.3321 26.989 44.3431 26.8795C44.354 26.8138 44.365 26.7372 44.3759 26.6715V26.6605C44.3869 26.6167 44.3978 26.562 44.3978 26.5182C44.4088 26.4744 44.4197 26.4196 44.4197 26.3759C44.4416 26.2335 44.4635 26.0802 44.4854 25.9269C44.4963 25.8503 44.5073 25.7846 44.5182 25.708C44.5292 25.6532 44.5292 25.5985 44.5401 25.5437C44.5401 25.5218 44.5401 25.5109 44.5511 25.489C44.562 25.3795 44.5839 25.2591 44.5949 25.1496C44.5949 25.1277 44.6058 25.0948 44.6058 25.0729C44.6058 25.0401 44.6168 25.0182 44.6168 24.9853C44.6277 24.9306 44.6277 24.8649 44.6387 24.8102C44.6496 24.7554 44.6496 24.7007 44.6496 24.6459C44.6496 24.6131 44.6606 24.5802 44.6606 24.5474C44.6606 24.5255 44.6606 24.5036 44.6715 24.4926C44.6715 24.4598 44.6825 24.416 44.6825 24.3832C44.6934 24.3175 44.6934 24.2408 44.7044 24.1751C44.7591 23.6058 44.781 23.0802 44.8029 22.5985C44.8029 22.478 44.8139 22.3576 44.8139 22.2481V22.2372L44.8248 21.854V21.6897V21.4926C44.8248 21.4707 44.8248 21.4488 44.8248 21.4269V14.9671C44.8248 12.9087 44.365 10.8394 43.4781 9.02184C42.5912 7.19337 41.2883 5.60578 39.6022 4.48899C37.6314 3.17512 35.2336 2.51819 33.3285 2.17877C31.5 1.8503 30.1204 1.83936 30.0328 1.83936C30.0328 1.83936 30.0328 1.83936 30.0219 1.83936C30.0219 1.83936 30.0219 1.83936 30.0109 1.83936C29.9124 1.83936 28.5438 1.86125 26.7153 2.17877C24.7993 2.51819 22.4015 3.17512 20.4307 4.48899C18.7445 5.60578 17.4307 7.20432 16.5547 9.02184C15.6679 10.8503 15.208 12.9087 15.208 14.9671V21.4707C15.208 21.4817 15.208 21.4817 15.208 21.4926V21.5036V21.7007V21.8649V21.9744V22.2372V22.2481C15.2409 23.1788 15.2956 24.2846 15.4489 25.489C15.5255 26.0802 15.6241 26.6605 15.7336 27.2189H15.7445C15.7555 27.2737 15.7664 27.3175 15.7774 27.3613V27.3722C16.5 30.9306 17.8905 33.8868 19.8175 35.9999C19.9599 36.1642 20.1131 36.3175 20.2664 36.4707L20.0474 40.3029L20.1022 40.4562L20.4197 41.4416L21.3723 44.4197L12.2847 45.7664L9.03285 42.4051C0.0218975 45.1751 0.481752 49.3905 0.481752 49.3905L0 61.5547H60.0109V61.5437ZM25.1934 59.3211L29.792 53.2445L25.4672 52.7956C25.4343 52.7956 25.4124 52.7408 25.4343 52.7408L33.0657 47.1678H33.0985C33.1314 47.1678 33.1533 47.2007 33.1314 47.2226L29.1898 51.8321C29.1569 51.8649 29.1898 51.8868 29.2226 51.8868L33.9088 52.2153C33.9416 52.2153 33.9744 52.2481 33.9416 52.281L25.2591 59.3759C25.1934 59.3759 25.1715 59.343 25.1934 59.3211ZM38.781 51.8102C38.8139 51.8102 38.8139 51.8649 38.781 51.8978L29.9781 59.0802H29.9234L28.3686 57.7992C28.3358 57.7664 28.3358 57.7445 28.3686 57.7116L29.0584 57.1423C29.0912 57.1094 29.1241 57.1094 29.146 57.1423L29.9234 57.7773C29.9562 57.8102 29.9781 57.8102 30.0109 57.7773L37.2591 51.8211C37.292 51.7883 37.292 51.7554 37.2591 51.7335L35.2007 49.7299C35.1679 49.697 35.146 49.697 35.1131 49.697H32.0146C31.9818 49.697 31.9489 49.6642 31.9818 49.6423L32.7591 48.7554C32.792 48.7554 32.8139 48.7226 32.8467 48.7226H35.5292C35.562 48.7335 35.5949 48.7335 35.6168 48.7554L38.781 51.8102ZM17.2555 25.6642C17.2445 25.6094 17.2445 25.5656 17.2336 25.5109C17.2445 25.489 17.2445 25.4671 17.2555 25.4342C17.2774 25.3686 17.3102 25.3029 17.3321 25.2372C17.6715 24.4817 18.1095 23.7153 18.4818 22.8065C18.854 21.9087 19.1496 20.8686 19.1825 19.5656C19.1825 19.5656 19.0839 17.8029 19.489 15.9196C19.6095 15.3394 19.7847 14.7591 20.0146 14.2007C21.5584 15.1532 24.9307 16.7627 30 16.7627C35.0693 16.7627 38.4416 15.1423 39.9854 14.2007C40.2153 14.7591 40.3905 15.3394 40.5109 15.9196C40.9161 17.8138 40.8175 19.5656 40.8175 19.5656C40.8504 20.8686 41.146 21.8978 41.5182 22.8065C41.8905 23.7043 42.3394 24.4707 42.6679 25.2372C42.7007 25.3029 42.7226 25.3686 42.7445 25.4342C42.7555 25.4561 42.7555 25.478 42.7664 25.4999C42.7555 25.5547 42.7555 25.5985 42.7445 25.6532C42.3066 28.6423 41.2664 32.2335 38.8905 34.8284C36.7226 37.1824 33.7336 38.3868 30 38.4087C26.2664 38.3978 23.2774 37.1934 21.1095 34.8284C18.7336 32.2445 17.6934 28.6532 17.2555 25.6642ZM21.8212 40.2262L21.9526 37.8722C24.1642 39.3941 26.8577 40.1605 30.0109 40.1715H30.0219C32.146 40.1605 34.062 39.8102 35.7701 39.1094C36.5803 38.781 37.3467 38.3649 38.0693 37.8832L38.2117 40.3467H38.2007L36.8869 44.343H23.1241L21.8212 40.3467H21.8102L21.8212 40.2262ZM21.2299 51.8102L24.3613 48.7445C24.3942 48.7116 24.4161 48.7116 24.4489 48.7116H29.6058C29.6715 48.7116 29.6715 48.7445 29.6387 48.7664L28.3905 49.6642C28.3905 49.697 28.3577 49.697 28.3358 49.697H24.8759C24.8431 49.697 24.8212 49.697 24.7883 49.7299L22.7299 51.7335C22.6971 51.7664 22.6971 51.7883 22.7299 51.8211L27.1423 55.4562C27.1752 55.489 27.1752 55.5109 27.1752 55.5437L26.6387 56.2554C26.6058 56.2883 26.5839 56.2883 26.5511 56.2554L21.2299 51.8978C21.1971 51.8759 21.1971 51.843 21.2299 51.8102Z" fill="#173856"/>
<path d="M50.552 40.8394C47.0812 39.8321 41.6177 39.4598 41.6177 39.4598L41.4316 40.0511L41.2455 40.6095H41.2345L40.3477 43.3686L47.2455 44.3978L49.5119 42.0438L49.5228 42.0328L49.6214 41.9124L50.552 40.8394Z" fill="#173856"/>
</g>
<defs>
<clipPath id="clip0">
<rect width="60" height="61.5438" fill="white"/>
</clipPath>
</defs>
</svg>
