<svg width="48" height="54" viewBox="0 0 48 54" fill="none" xmlns="http://www.w3.org/2000/svg">
<g clip-path="url(#clip0)">
<path d="M8.86989 36.4664L10.6264 38.4992L15.9722 37.6063L15.3697 35.507L15.2849 35.222L15.1406 34.7376L14.9964 34.2341C14.9964 34.2341 10.7706 34.5571 8.07227 35.431L8.76807 36.3429L8.85292 36.4569L8.86989 36.4664Z" fill="#173856"/>
<path d="M47.2585 53.3935L46.8936 42.8497C46.8936 42.8497 47.25 39.1926 40.2665 36.8083L37.7463 39.7245L30.7035 38.5562L31.4417 35.9724L31.6878 35.1175L31.7217 35.0035L31.552 31.6694C31.6793 31.5364 31.7981 31.3939 31.9169 31.2515C33.4188 29.4182 34.488 26.8534 35.048 23.7568C35.0565 23.7093 35.065 23.6713 35.0734 23.6238C35.0734 23.6143 35.0734 23.6143 35.0734 23.6048C35.0734 23.6048 35.0734 23.6048 35.0734 23.5953C35.0904 23.5003 35.1074 23.4148 35.1159 23.3198C35.1244 23.2628 35.1328 23.1963 35.1413 23.1393V23.1298C35.1498 23.0918 35.1583 23.0444 35.1583 23.0064C35.1668 22.9684 35.1753 22.9209 35.1753 22.8829C35.1922 22.7594 35.2092 22.6264 35.2262 22.4934C35.2347 22.4269 35.2432 22.3699 35.2516 22.3034C35.2601 22.2559 35.2601 22.2084 35.2686 22.161C35.2686 22.142 35.2686 22.1325 35.2771 22.1135C35.2856 22.0185 35.3026 21.914 35.311 21.819C35.311 21.8 35.3195 21.7715 35.3195 21.7525C35.3195 21.724 35.328 21.705 35.328 21.6765C35.3365 21.629 35.3365 21.572 35.345 21.5245C35.3535 21.477 35.3535 21.4295 35.3535 21.382C35.3535 21.3535 35.3619 21.325 35.3619 21.2965C35.3619 21.2775 35.3619 21.2585 35.3704 21.2491C35.3704 21.2206 35.3789 21.1826 35.3789 21.1541C35.3874 21.0971 35.3874 21.0306 35.3959 20.9736C35.4383 20.4796 35.4553 20.0237 35.4723 19.6057C35.4723 19.5012 35.4807 19.3968 35.4807 19.3018V19.2923L35.4892 18.9598V18.8173V18.6463C35.4892 18.6273 35.4892 18.6083 35.4892 18.5893V12.985C35.4892 11.1992 35.1328 9.40385 34.4455 7.82702C33.7582 6.24069 32.7484 4.86335 31.4417 3.89445C29.9143 2.75458 28.056 2.18464 26.5796 1.89017C25.1625 1.6052 24.0933 1.5957 24.0255 1.5957C24.0255 1.5957 24.0255 1.5957 24.017 1.5957C24.017 1.5957 24.017 1.5957 24.0085 1.5957C23.9321 1.5957 22.8714 1.6147 21.4544 1.89017C19.9694 2.18464 18.1111 2.75458 16.5838 3.89445C15.277 4.86335 14.2588 6.25019 13.5799 7.82702C12.8926 9.41335 12.5362 11.1992 12.5362 12.985V18.6273C12.5362 18.6368 12.5362 18.6368 12.5362 18.6463V18.6558V18.8268V18.9693V19.0643V19.2923V19.3018C12.5617 20.1092 12.6041 21.0686 12.7229 22.1135C12.7823 22.6264 12.8587 23.1298 12.9435 23.6143H12.952C12.9605 23.6618 12.969 23.6998 12.9775 23.7378V23.7473C13.5375 26.8344 14.6151 29.3992 16.1086 31.2325C16.2189 31.3749 16.3377 31.5079 16.4565 31.6409L16.2868 34.9655L16.3292 35.0985L16.5753 35.9534L17.3135 38.5372L10.2706 39.7055L7.75046 36.7893C0.766971 39.1926 1.12336 42.8497 1.12336 42.8497L0.75 53.403H47.2585V53.3935ZM20.2749 51.4652L23.8388 46.1933L20.487 45.8039C20.4616 45.8039 20.4446 45.7564 20.4616 45.7564L26.3759 40.9214H26.4014C26.4268 40.9214 26.4438 40.9499 26.4268 40.9689L23.3721 44.968C23.3466 44.9965 23.3721 45.0154 23.3975 45.0154L27.0293 45.3004C27.0547 45.3004 27.0802 45.3289 27.0547 45.3574L20.3258 51.5127C20.2749 51.5127 20.2579 51.4842 20.2749 51.4652ZM30.8053 44.949C30.8307 44.949 30.8307 44.9965 30.8053 45.0249L23.983 51.2563H23.9406L22.7357 50.1449C22.7102 50.1164 22.7102 50.0974 22.7357 50.0689L23.2703 49.575C23.2957 49.5465 23.3212 49.5465 23.3381 49.575L23.9406 50.1259C23.9661 50.1544 23.983 50.1544 24.0085 50.1259L29.6258 44.9585C29.6513 44.93 29.6513 44.9015 29.6258 44.8825L28.0306 43.1442C28.0051 43.1157 27.9881 43.1157 27.9627 43.1157H25.5613C25.5359 43.1157 25.5104 43.0872 25.5359 43.0682L26.1383 42.2987C26.1638 42.2987 26.1807 42.2702 26.2062 42.2702H28.2851C28.3106 42.2798 28.336 42.2797 28.353 42.2987L30.8053 44.949ZM14.123 22.2654C14.1145 22.2179 14.1145 22.1799 14.106 22.1325C14.1145 22.1135 14.1145 22.0945 14.123 22.066C14.14 22.009 14.1654 21.952 14.1824 21.895C14.4454 21.2396 14.7849 20.5746 15.0734 19.7862C15.3619 19.0073 15.591 18.1049 15.6164 16.9745C15.6164 16.9745 15.5401 15.4452 15.854 13.8114C15.9474 13.3079 16.0831 12.8045 16.2613 12.32C17.4578 13.1464 20.0713 14.5428 24 14.5428C27.9287 14.5428 30.5422 13.1369 31.7387 12.32C31.9169 12.8045 32.0526 13.3079 32.146 13.8114C32.4599 15.4547 32.3836 16.9745 32.3836 16.9745C32.409 18.1049 32.6381 18.9978 32.9266 19.7862C33.2151 20.5651 33.563 21.2301 33.8176 21.895C33.8431 21.952 33.86 22.009 33.877 22.066C33.8855 22.085 33.8855 22.104 33.894 22.123C33.8855 22.1704 33.8855 22.2084 33.877 22.2559C33.5376 24.8492 32.7315 27.9648 30.8901 30.2161C29.21 32.2583 26.8935 33.3032 24 33.3222C21.1065 33.3127 18.79 32.2678 17.1099 30.2161C15.2685 27.9743 14.4624 24.8587 14.123 22.2654ZM17.6614 34.8991L17.7632 32.8568C19.4773 34.1771 21.5647 34.8421 24.0085 34.8516H24.017C25.6631 34.8421 27.1481 34.5381 28.4718 33.9302C29.0997 33.6452 29.6937 33.2842 30.2537 32.8663L30.364 35.0035H30.3556L29.3373 38.4707H18.6712L17.6614 35.0035H17.6529L17.6614 34.8991ZM17.2032 44.949L19.63 42.2892C19.6555 42.2608 19.6724 42.2607 19.6979 42.2607H23.6945C23.7454 42.2607 23.7454 42.2892 23.72 42.3082L22.7526 43.0872C22.7526 43.1157 22.7272 43.1157 22.7102 43.1157H20.0288C20.0034 43.1157 19.9864 43.1157 19.9609 43.1442L18.3657 44.8825C18.3402 44.911 18.3402 44.93 18.3657 44.9585L21.7853 48.1121C21.8108 48.1406 21.8108 48.1596 21.8108 48.1881L21.395 48.8055C21.3695 48.834 21.3526 48.834 21.3271 48.8055L17.2032 45.0249C17.1777 45.006 17.1777 44.9775 17.2032 44.949Z" fill="#173856"/>
<path d="M39.927 35.431C37.2371 34.5571 33.0029 34.2341 33.0029 34.2341L32.8586 34.7471L32.7144 35.2315H32.7059L32.0186 37.6253L37.3644 38.5182L39.1208 36.4759L39.1293 36.4664L39.2057 36.3619L39.927 35.431Z" fill="#173856"/>
</g>
<defs>
<clipPath id="clip0">
<rect width="48" height="53.3937" fill="white"/>
</clipPath>
</defs>
</svg>
